<svg xmlns="http://www.w3.org/2000/svg" viewBox="0 0 800 450" fill="none" role="img" aria-labelledby="t">
  <title id="t">ERP &amp; CRM</title>
  <defs>
    <linearGradient id="ebg" x1="0" y1="1" x2="1" y2="0">
      <stop offset="0%" stop-color="#020617"/>
      <stop offset="100%" stop-color="#1e293b"/>
    </linearGradient>
  </defs>
  <rect width="800" height="450" rx="28" fill="url(#ebg)"/>
  <rect x="320" y="160" width="160" height="96" rx="12" fill="rgba(34,211,238,0.15)" stroke="rgba(34,211,238,0.5)"/>
  <rect x="352" y="188" width="96" height="40" rx="8" fill="rgba(15,23,42,0.5)" stroke="rgba(248,250,252,0.12)"/>
  <rect x="120" y="100" width="100" height="64" rx="10" fill="rgba(248,250,252,0.06)" stroke="rgba(248,250,252,0.15)"/>
  <rect x="580" y="100" width="100" height="64" rx="10" fill="rgba(248,250,252,0.06)" stroke="rgba(248,250,252,0.15)"/>
  <rect x="120" y="280" width="100" height="64" rx="10" fill="rgba(248,250,252,0.06)" stroke="rgba(248,250,252,0.15)"/>
  <rect x="580" y="280" width="100" height="64" rx="10" fill="rgba(248,250,252,0.06)" stroke="rgba(248,250,252,0.15)"/>
  <path d="M220 132h90M490 132h90M220 312h90M490 312h90" stroke="rgba(34,211,238,0.35)" stroke-width="2"/>
  <path d="M320 180H220M580 180H480M320 236H220M580 236H480" stroke="rgba(34,211,238,0.35)" stroke-width="2"/>
  <circle cx="400" cy="360" r="6" fill="#e8c547"/>
</svg>
